<svg width="50" height="50" viewBox="0 0 50 50" fill="none" xmlns="http://www.w3.org/2000/svg">
<path d="M48.4375 10.6933C46.6792 11.4574 44.8187 11.9607 42.915 12.1875C44.9157 11.016 46.4202 9.15484 47.1465 6.95311C45.255 8.05916 43.189 8.83521 41.0371 9.24803C40.131 8.29835 39.0411 7.54286 37.8339 7.02747C36.6267 6.51208 35.3273 6.24756 34.0146 6.24999C28.7002 6.24999 24.3994 10.4883 24.3994 15.7129C24.3956 16.4396 24.4789 17.1642 24.6475 17.8711C20.8366 17.6924 17.105 16.7203 13.6914 15.0168C10.2778 13.3134 7.25731 10.9162 4.82324 7.9785C3.96931 9.41807 3.51771 11.0606 3.51562 12.7344C3.51562 16.0156 5.22754 18.916 7.8125 20.6152C6.28098 20.5789 4.78085 20.1735 3.43945 19.4336V19.5508C3.43945 24.1406 6.75977 27.959 11.1543 28.8281C10.3279 29.0484 9.47634 29.16 8.62109 29.1601C8.01424 29.1612 7.40876 29.1023 6.81348 28.9844C8.03516 32.7441 11.5908 35.4785 15.8027 35.5566C12.3803 38.1942 8.17834 39.6198 3.85742 39.6094C3.09045 39.6082 2.32419 39.5626 1.5625 39.4726C5.95818 42.2795 11.0678 43.7642 16.2832 43.75C33.9941 43.75 43.6699 29.3262 43.6699 16.8164C43.6699 16.4062 43.6592 15.9961 43.6396 15.5957C45.5177 14.2598 47.1424 12.5997 48.4375 10.6933V10.6933Z" fill="black"/>
</svg>
